HIERARCHY
ROOT root
{
	OFFSET 0.000000 0.000000 0.000000
	CHANNELS 6 Xposition Yposition Zposition Zrotation Yrotation Xrotation
	JOINT lhip
	{
		OFFSET 0.058581 -0.082280 -0.017664
		CHANNELS 3 Zrotation Yrotation Xrotation
		JOINT lknee
		{
			OFFSET 0.043451 -0.386469 0.008037
			CHANNELS 3 Zrotation Yrotation Xrotation
			JOINT lankle
			{
				OFFSET -0.014790 -0.426874 -0.037428
				CHANNELS 3 Zrotation Yrotation Xrotation
				JOINT ltoe
				{
					OFFSET 0.041054 -0.060286 0.122042
					CHANNELS 3 Zrotation Yrotation Xrotation
					End Site
					{
						OFFSET 0.000000 0.000000 0.000000
					}
				}
			}
		}
	}
	JOINT rhip
	{
		OFFSET -0.060310 -0.090513 -0.013543
		CHANNELS 3 Zrotation Yrotation Xrotation
		JOINT rknee
		{
			OFFSET -0.043257 -0.383688 -0.004843
			CHANNELS 3 Zrotation Yrotation Xrotation
			JOINT rankle
			{
				OFFSET 0.019056 -0.420046 -0.034562
				CHANNELS 3 Zrotation Yrotation Xrotation
				JOINT rtoe
				{
					OFFSET -0.034840 -0.062106 0.130323
					CHANNELS 3 Zrotation Yrotation Xrotation
					End Site
					{
						OFFSET 0.000000 0.000000 0.000000
					}
				}
			}
		}
	}
	JOINT lowerback
	{
		OFFSET 0.004439 0.124404 -0.038385
		CHANNELS 3 Zrotation Yrotation Xrotation
		JOINT upperback
		{
			OFFSET 0.004488 0.137956 0.026820
			CHANNELS 3 Zrotation Yrotation Xrotation
			JOINT chest
			{
				OFFSET -0.002265 0.056032 0.002855
				CHANNELS 3 Zrotation Yrotation Xrotation
				JOINT lowerneck
				{
					OFFSET -0.013390 0.211636 -0.033468
					CHANNELS 3 Zrotation Yrotation Xrotation
					JOINT upperneck
					{
						OFFSET 0.010113 0.088937 0.050410
						CHANNELS 3 Zrotation Yrotation Xrotation
						End Site
						{
							OFFSET 0.000000 0.000000 0.000000
						}
					}
				}
				JOINT lclavicle
				{
					OFFSET 0.071702 0.114000 -0.018898
					CHANNELS 3 Zrotation Yrotation Xrotation
					JOINT lshoulder
					{
						OFFSET 0.122921 0.045205 -0.019046
						CHANNELS 3 Zrotation Yrotation Xrotation
						JOINT lelbow
						{
							OFFSET 0.255332 -0.015649 -0.022946
							CHANNELS 3 Zrotation Yrotation Xrotation
							JOINT lwrist
							{
								OFFSET 0.265709 0.012698 -0.007375
								CHANNELS 3 Zrotation Yrotation Xrotation
								End Site
								{
									OFFSET 0.000000 0.000000 0.000000
								}
							}
						}
					}
				}
				JOINT rclavicle
				{
					OFFSET -0.082954 0.112472 -0.023707
					CHANNELS 3 Zrotation Yrotation Xrotation
					JOINT rshoulder
					{
						OFFSET -0.113228 0.046853 -0.008472
						CHANNELS 3 Zrotation Yrotation Xrotation
						JOINT relbow
						{
							OFFSET -0.260127 -0.014369 -0.031269
							CHANNELS 3 Zrotation Yrotation Xrotation
							JOINT rwrist
							{
								OFFSET -0.269108 0.006794 -0.006027
								CHANNELS 3 Zrotation Yrotation Xrotation
								End Site
								{
									OFFSET 0.000000 0.000000 0.000000
								}
							}
						}
					}
				}
			}
		}
	}
}
MOTION
Frames: 17
Frame Time: 0.033333
0.445106 0.178934 0.996593 85.651569 2.800630 93.153916 6.194145 4.266444 -2.558002 1.928323 1.830055 -2.454741 -1.378835 9.070973 -3.753374 0.000000 -0.000000 0.000000 -1.944269 0.442975 -6.584748 -0.810331 0.510233 3.220258 5.522273 -1.411100 -3.317161 0.000000 -0.000000 0.000000 -2.151051 -0.267824 5.949928 2.882671 -2.013740 -1.743647 2.279377 0.296604 -5.014396 0.682982 -8.623120 1.302210 3.135683 -15.282663 -1.802198 -22.506071 -4.828714 2.322196 -59.312541 -17.111509 24.052507 -7.758208 -26.492972 23.623418 -10.338770 -20.480370 -19.370432 22.358872 9.254571 2.846983 52.767102 14.408694 22.887353 5.802409 35.287794 8.298221 3.104302 8.859068 -34.647089 
0.444578 0.178297 0.996614 85.466971 2.820788 93.257994 6.295327 2.984636 -2.473539 1.778653 2.864686 -2.655149 -0.563854 9.204740 -3.618016 0.000000 -0.000000 0.000000 -2.118340 0.109174 -6.789085 -0.571210 0.253939 3.252633 5.918589 -0.645577 -3.435215 0.000000 -0.000000 0.000000 -2.240474 -0.045942 5.582493 3.026614 -2.238555 -1.640481 2.419822 0.197405 -4.758454 -0.916719 -9.656801 0.552281 4.381077 -13.761175 -0.948238 -22.760495 -5.789644 0.881293 -60.113806 -15.970993 25.050918 -6.747778 -28.032578 22.312798 -15.520664 -18.704111 -12.105821 23.259263 11.057299 2.118893 51.600223 11.901622 27.312966 12.805873 34.418916 27.278638 25.461394 5.394626 -9.050680 
0.444712 0.177969 0.996471 85.628408 2.872903 93.257205 6.308522 2.858084 -2.555954 1.852245 2.766400 -2.583671 -0.472689 9.174082 -3.686271 0.000000 -0.000000 0.000000 -2.079060 -0.169528 -6.642562 -0.507535 0.419760 2.959606 5.838463 -0.760036 -3.369576 0.000000 -0.000000 0.000000 -2.086162 0.000282 5.446694 2.979433 -2.364482 -1.718545 2.385146 0.196255 -4.675889 -1.002116 -9.811208 0.613112 4.263230 -13.701005 -0.858020 -22.942477 -6.026260 0.717044 -60.391123 -16.458888 25.015920 -6.558239 -28.478446 21.664321 -15.238323 -17.384618 -13.153265 23.146803 11.111303 2.057686 51.604747 12.344418 27.121445 13.102058 34.653333 26.702090 25.031372 4.937508 -10.854522 
0.445506 0.177231 0.996186 86.056925 2.953558 93.349173 6.382114 3.730618 -2.854661 1.847265 1.320285 -2.431933 -0.045461 9.334428 -3.753669 0.000000 -0.000000 0.000000 -1.801567 -1.035953 -6.449869 -0.576095 1.651480 2.526074 5.562979 -1.698004 -3.482584 0.000000 -0.000000 0.000000 -1.922148 0.114505 5.109405 2.787680 -2.683440 -2.186460 2.403852 0.211233 -4.200691 -0.964949 -10.231152 1.251468 4.256579 -13.417289 -1.347522 -22.884231 -6.693046 0.366478 -60.522213 -16.078439 25.993718 -10.353388 -29.970023 29.933754 -3.965983 -8.857670 -6.454971 22.727018 11.333936 1.923430 51.674735 12.355782 25.930315 14.724555 34.375303 27.705205 12.807481 3.898406 -10.787802 
0.445686 0.177020 0.996153 86.179930 2.940140 93.394688 6.362484 3.735549 -2.887178 1.851749 1.184221 -2.511258 -0.054021 9.348079 -3.705616 0.000000 -0.000000 0.000000 -1.782922 -1.158538 -6.419175 -0.600063 1.739298 2.411178 5.561849 -1.806335 -3.457532 0.000000 -0.000000 0.000000 -1.918152 0.137520 5.062793 2.764548 -2.715090 -2.304206 2.388911 0.171228 -4.167479 -0.949939 -10.244194 1.271567 4.204664 -13.470060 -1.296824 -22.695350 -6.567932 0.377721 -60.618673 -16.177708 26.022327 -10.584685 -30.273623 30.585530 -2.983725 -8.605587 -6.746888 22.701609 11.201337 1.936468 51.705204 12.462409 25.842920 14.776133 34.235187 27.934902 11.323761 4.008479 -10.773361 
0.445766 0.176820 0.996182 86.366865 2.882403 93.446786 6.277382 3.658107 -2.923710 1.883848 1.110128 -2.626153 -0.073078 9.281074 -3.654137 0.000000 -0.000000 0.000000 -1.818553 -1.257785 -6.380698 -0.633549 1.638120 2.276350 5.638519 -1.788115 -3.429736 0.000000 -0.000000 0.000000 -1.933805 0.211066 5.140337 2.745065 -2.715189 -2.480115 2.340611 0.076068 -4.313196 -0.949029 -10.276136 1.240494 4.146819 -13.547940 -1.097550 -22.336916 -6.334982 0.275907 -60.788421 -16.089133 26.238000 -10.403236 -30.565161 31.050492 -2.944267 -8.841146 -6.743679 22.697166 11.051186 1.798280 51.750007 12.337460 25.909309 14.599813 33.908364 27.848893 11.739511 3.999689 -10.751892 
0.445723 0.176795 0.996242 86.532020 2.822175 93.435060 6.186493 3.566791 -2.920991 1.917669 1.093390 -2.677218 -0.064227 9.175054 -3.661750 0.000000 -0.000000 0.000000 -1.886716 -1.313954 -6.306026 -0.638950 1.446460 2.195202 5.709838 -1.682778 -3.435411 0.000000 -0.000000 0.000000 -1.970969 0.297528 5.287638 2.778373 -2.712375 -2.556208 2.315601 0.022075 -4.518966 -0.986270 -10.327432 1.171214 4.129639 -13.566819 -0.919910 -22.131614 -6.165941 0.101761 -60.766460 -15.819645 26.464594 -9.994842 -30.478577 31.047122 -3.519365 -9.004601 -5.964583 22.743041 11.014994 1.589669 51.657376 12.068276 26.009504 14.299800 33.320608 27.364911 13.727729 3.795444 -10.791232 
0.445733 0.176833 0.996169 86.700239 2.789565 93.372011 6.122406 3.587962 -2.873461 1.956101 0.936749 -2.721328 -0.049510 9.123242 -3.685737 0.000000 -0.000000 0.000000 -1.911563 -1.369187 -6.180889 -0.655284 1.380215 2.127147 5.715027 -1.714744 -3.475874 0.000000 -0.000000 0.000000 -1.979617 0.316811 5.457247 2.795349 -2.683061 -2.659539 2.337682 0.065007 -4.591025 -1.005925 -10.405120 1.133629 4.113371 -13.606029 -0.869598 -22.095218 -6.070275 -0.012912 -60.510549 -15.514828 26.418122 -9.644975 -29.863004 31.199897 -3.720663 -8.923652 -4.877682 22.735402 11.082298 1.506893 51.512182 11.810933 25.899876 13.951531 32.507325 26.678887 14.303517 3.539162 -10.829141 
0.445881 0.176903 0.995972 86.870817 2.782386 93.304050 6.070863 3.720275 -2.791392 2.022799 0.636561 -2.822399 -0.053012 9.135962 -3.679880 0.000000 -0.000000 0.000000 -1.889888 -1.428460 -6.043229 -0.691552 1.434075 2.062891 5.682221 -1.884102 -3.527274 0.000000 -0.000000 0.000000 -1.922922 0.314149 5.632339 2.762213 -2.630252 -2.821621 2.359180 0.127341 -4.587640 -0.990400 -10.519896 1.179011 4.130832 -13.683781 -0.934510 -22.121698 -5.953098 -0.070451 -60.158220 -15.130597 26.128386 -9.361332 -28.731394 31.523107 -3.184703 -8.544737 -3.648848 22.719355 11.092514 1.499349 51.330863 11.542103 25.581597 13.702096 31.683691 26.095848 13.353605 3.318159 -10.786901 
0.446251 0.177029 0.995689 87.025480 2.786653 93.251334 6.022705 3.905168 -2.650351 2.109609 0.298040 -3.037707 -0.063566 9.172026 -3.635562 0.000000 -0.000000 0.000000 -1.858822 -1.495410 -5.896256 -0.723603 1.537615 1.971859 5.643324 -2.093572 -3.576565 0.000000 -0.000000 0.000000 -1.828256 0.327505 5.730274 2.699003 -2.594968 -2.929407 2.369580 0.185921 -4.602125 -1.025612 -10.727609 1.345803 4.246496 -13.669921 -1.099449 -22.187196 -5.815102 -0.093119 -59.778920 -14.585778 25.715707 -8.956813 -27.211520 31.614243 -2.186053 -7.993418 -2.146652 22.655575 11.148247 1.510328 51.157297 11.118296 25.264850 13.521848 30.960143 25.483653 12.220044 3.039841 -10.693527 
0.446820 0.177171 0.995366 87.143220 2.802449 93.228554 5.999460 4.085298 -2.483692 2.180144 0.004760 -3.317209 -0.087878 9.204075 -3.560572 0.000000 -0.000000 0.000000 -1.827151 -1.551123 -5.770693 -0.739678 1.648454 1.869080 5.591657 -2.284758 -3.611503 0.000000 -0.000000 0.000000 -1.714302 0.346510 5.729413 2.643682 -2.559264 -2.978449 2.367716 0.219560 -4.624752 -1.042277 -10.912271 1.510268 4.316833 -13.606395 -1.275666 -22.330044 -5.526218 -0.079410 -59.356336 -13.988187 25.140566 -8.366411 -25.502450 31.474837 -1.497816 -7.578745 -0.601110 22.621819 11.061992 1.529597 50.950519 10.699981 24.973163 13.409880 30.284379 25.216346 11.344995 2.798769 -10.346826 
0.447435 0.177306 0.995075 87.243847 2.829968 93.235026 6.008246 4.223811 -2.372616 2.217139 -0.237231 -3.527004 -0.118052 9.219985 -3.496171 0.000000 -0.000000 0.000000 -1.791449 -1.580901 -5.680119 -0.742039 1.730770 1.774205 5.522616 -2.445682 -3.642552 0.000000 -0.000000 0.000000 -1.581442 0.346367 5.706757 2.597416 -2.504800 -3.056648 2.351686 0.222838 -4.639379 -0.992266 -11.040039 1.608311 4.269535 -13.552558 -1.368605 -22.534089 -5.039441 -0.059526 -58.894902 -13.377973 24.410444 -7.589720 -23.788468 31.211757 -1.634991 -7.335557 0.865199 22.646520 10.801719 1.566637 50.712904 10.339986 24.690092 13.306674 29.623508 25.219788 10.840757 2.692860 -9.821479 
0.447972 0.177430 0.994862 87.349714 2.861879 93.252630 6.030752 4.337532 -2.346848 2.231629 -0.460482 -3.597364 -0.156149 9.228818 -3.479493 0.000000 -0.000000 0.000000 -1.746836 -1.595206 -5.610091 -0.750726 1.777937 1.697701 5.443837 -2.587287 -3.672864 0.000000 -0.000000 0.000000 -1.438033 0.325728 5.721374 2.548177 -2.443093 -3.200186 2.318975 0.217394 -4.637790 -0.886227 -11.126012 1.657545 4.165920 -13.528089 -1.394992 -22.758318 -4.447297 -0.038336 -58.412277 -12.699582 23.604267 -6.674476 -22.166926 30.997994 -2.301654 -7.101237 2.395209 22.718944 10.412405 1.592922 50.480135 9.990741 24.328045 13.172853 28.950367 25.351005 10.766082 2.608667 -9.404823 
0.448387 0.177581 0.994605 87.392850 2.860718 93.234527 6.005829 4.497056 -2.313150 2.259304 -0.696650 -3.610983 -0.204353 9.286553 -3.496499 0.000000 -0.000000 0.000000 -1.731995 -1.541883 -5.542538 -0.778797 1.825258 1.667348 5.361227 -2.738416 -3.720835 0.000000 -0.000000 0.000000 -1.293007 0.244696 5.865264 2.424974 -2.294800 -3.442820 2.274253 0.249180 -4.614278 -0.771967 -11.232032 1.670211 4.094000 -13.491087 -1.392938 -22.937288 -3.872025 -0.010295 -57.930856 -11.902992 22.786411 -5.735156 -20.644689 30.930370 -2.661235 -6.793407 4.056043 22.728838 10.083942 1.614377 50.374844 9.559120 23.916061 13.009943 28.206577 25.306330 10.487617 2.510615 -9.379065 
0.448727 0.177753 0.994251 87.370274 2.836825 93.192517 5.953297 4.682658 -2.255641 2.292793 -0.911605 -3.615091 -0.262824 9.380320 -3.526619 0.000000 -0.000000 0.000000 -1.741555 -1.443017 -5.491233 -0.815418 1.874479 1.682856 5.285321 -2.875493 -3.775198 0.000000 -0.000000 0.000000 -1.158831 0.123523 6.072653 2.255274 -2.078067 -3.722713 2.237162 0.303373 -4.554655 -0.659160 -11.348050 1.630047 4.038904 -13.409947 -1.394599 -23.089958 -3.283797 0.009006 -57.467339 -11.043510 21.963071 -4.767284 -19.306561 30.796067 -2.671413 -6.427441 5.757811 22.701089 9.796542 1.613189 50.323754 9.108346 23.499967 12.868018 27.396558 25.150091 10.092360 2.408138 -9.538829 
0.449069 0.177892 0.993921 87.363775 2.831771 93.161950 5.945019 4.818492 -2.214564 2.294707 -1.077717 -3.605363 -0.311618 9.455587 -3.571471 0.000000 -0.000000 0.000000 -1.735714 -1.381279 -5.444503 -0.841542 1.916279 1.689767 5.219042 -2.990296 -3.814957 0.000000 -0.000000 0.000000 -1.049274 0.034729 6.211454 2.130643 -1.913006 -3.933376 2.222956 0.341218 -4.478351 -0.562702 -11.461810 1.576762 3.977104 -13.287759 -1.423758 -23.258996 -2.613353 0.022075 -57.026523 -10.195441 21.121295 -3.791114 -18.214043 30.313743 -2.734763 -6.012972 7.300044 22.710928 9.460184 1.588089 50.184064 8.694908 23.126835 12.746032 26.674437 24.960164 9.976281 2.340454 -9.568284 
0.449478 0.177996 0.993804 87.402437 2.852222 93.147830 5.974250 4.874199 -2.174258 2.278251 -1.199349 -3.617360 -0.348076 9.516233 -3.605435 0.000000 -0.000000 0.000000 -1.711906 -1.379140 -5.382347 -0.850925 1.942842 1.666818 5.167622 -3.077624 -3.837050 0.000000 -0.000000 0.000000 -0.977465 -0.001211 6.200401 2.101264 -1.836977 -4.014482 2.221963 0.351048 -4.377550 -0.486566 -11.509230 1.545685 3.888975 -13.165709 -1.477431 -23.389543 -1.797000 0.022577 -56.669739 -9.410450 20.317943 -2.856722 -17.343661 29.551661 -3.199030 -5.679137 8.154143 22.804105 8.914394 1.510697 49.889629 8.380893 22.802856 12.660328 26.166528 25.013770 10.431207 2.274696 -9.420997 
